<svg width="302" height="302" viewBox="0 0 302 302" fill="none" xmlns="http://www.w3.org/2000/svg">
<path d="M141.5 0L0.364349 50.132L21.8909 236.013L141.5 302L261.109 236.013L282.636 50.132L141.5 0Z" fill="#DD0031"/>
<path fill-rule="evenodd" clip-rule="evenodd" d="M141.5 0V33.522V33.371V186.334V302L261.109 236.013L282.636 50.132L141.5 0Z" fill="#C3002F"/>
<path d="M182.87 143.229L169.33 140.221L179.861 155.26V201.878L215.965 171.802V120.672L199.417 126.687L182.87 143.229Z" fill="white"/>
<path d="M98.6261 143.229L112.165 140.221L101.635 155.26V201.878L65.5304 171.802V120.672L82.0783 126.687L98.6261 143.229Z" fill="white"/>
<path fill-rule="evenodd" clip-rule="evenodd" d="M106.148 158.267L118.183 140.221L125.704 144.733H155.791L163.313 140.221L175.348 158.267V225.939L166.322 239.473L155.791 250H125.704L115.174 239.473L106.148 225.939V158.267Z" fill="white"/>
<path d="M179.861 230.45L199.417 210.901V191.351L179.861 207.893V230.45Z" fill="white"/>
<path d="M101.635 230.45L82.0783 210.901V191.351L101.635 207.893V230.45Z" fill="white"/>
<path fill-rule="evenodd" clip-rule="evenodd" d="M131.722 53H137.739V138.718H128.713L109.157 81.5725L121.191 53H125.704V87.5878L131.722 90.5954V53ZM143.757 53H149.774V90.5954L155.791 87.5878V53H160.304L172.339 81.5725L154.287 138.718H143.757V53Z" fill="white"/>
<path d="M128.713 138.718L64.0261 114.656L55 77.0611L110.661 81.5725L130.217 138.718H128.713Z" fill="white"/>
<path d="M154.287 138.718L218.974 114.656L228 77.0611L170.835 81.5725L152.783 138.718H154.287Z" fill="white"/>
<path d="M175.348 77.0611L206.939 74.0534L185.878 53H164.817L175.348 77.0611Z" fill="white"/>
<path d="M106.148 77.0611L74.5565 74.0534L95.6174 53H116.678L106.148 77.0611Z" fill="white"/>
</svg>
